HIERARCHY
ROOT Hips
{
    OFFSET   0.000000   0.000000   0.000000
    CHANNELS 6 Xposition Yposition Zposition Zrotation Xrotation Yrotation
    JOINT Chest
    {
        OFFSET   0.000000   8.007230   0.000000
        CHANNELS 3 Zrotation Xrotation Yrotation
        JOINT Chest2
        {
            OFFSET   0.000000  22.077100   0.000000
            CHANNELS 3 Zrotation Xrotation Yrotation
            JOINT Neck
            {
                OFFSET   0.000000  23.254800  -0.000021
                CHANNELS 3 Zrotation Xrotation Yrotation
                JOINT Head
                {
                    OFFSET   0.000000  14.370000   1.956610
                    CHANNELS 3 Zrotation Xrotation Yrotation
                    End Site
                    {
                        OFFSET   0.000000  19.566000   0.000000
                    }
                }
            }
            JOINT LeftCollar
            {
                OFFSET   3.911900  19.017000  -0.467063
                CHANNELS 3 Zrotation Xrotation Yrotation
                JOINT LeftShoulder
                {
                    OFFSET  10.383700   0.000000   0.000000
                    CHANNELS 3 Zrotation Xrotation Yrotation
                    JOINT LeftElbow
                    {
                        OFFSET  26.662100   0.001529   0.000325
                        CHANNELS 3 Zrotation Xrotation Yrotation
                        JOINT LeftWrist
                        {
                            OFFSET  28.869000  -0.000011  -0.000096
                            CHANNELS 3 Zrotation Xrotation Yrotation
                            JOINT LeftFinger0
                            {
                                OFFSET   2.044650  -2.323460   3.252850
                                CHANNELS 3 Zrotation Xrotation Yrotation
                                JOINT LeftFinger01
                                {
                                    OFFSET   3.088130   0.000000   0.000000
                                    CHANNELS 3 Zrotation Xrotation Yrotation
                                    JOINT LeftFinger02
                                    {
                                        OFFSET   2.639460   0.000000   0.000000
                                        CHANNELS 3 Zrotation Xrotation Yrotation
                                        End Site
                                        {
                                            OFFSET   2.582190   0.000000   0.000000
                                        }
                                    }
                                }
                            }
                            JOINT LeftFinger1
                            {
                                OFFSET   8.364480   0.000000   3.252850
                                CHANNELS 3 Zrotation Xrotation Yrotation
                                JOINT LeftFinger11
                                {
                                    OFFSET   4.646930   0.000000   0.000000
                                    CHANNELS 3 Zrotation Xrotation Yrotation
                                    JOINT LeftFinger12
                                    {
                                        OFFSET   2.323460   0.000000   0.000000
                                        CHANNELS 3 Zrotation Xrotation Yrotation
                                        End Site
                                        {
                                            OFFSET   2.273050   0.000000   0.000000
                                        }
                                    }
                                }
                            }
                            JOINT LeftFinger2
                            {
                                OFFSET   8.364480   0.000016   1.078090
                                CHANNELS 3 Zrotation Xrotation Yrotation
                                JOINT LeftFinger21
                                {
                                    OFFSET   5.111620   0.000000   0.000000
                                    CHANNELS 3 Zrotation Xrotation Yrotation
                                    JOINT LeftFinger22
                                    {
                                        OFFSET   2.788160   0.000017   0.000000
                                        CHANNELS 3 Zrotation Xrotation Yrotation
                                        End Site
                                        {
                                            OFFSET   2.727660   0.000000   0.000000
                                        }
                                    }
                                }
                            }
                            JOINT LeftFinger3
                            {
                                OFFSET   7.899780   0.000015  -1.078090
                                CHANNELS 3 Zrotation Xrotation Yrotation
                                JOINT LeftFinger31
                                {
                                    OFFSET   4.646920   0.000000   0.000000
                                    CHANNELS 3 Zrotation Xrotation Yrotation
                                    JOINT LeftFinger32
                                    {
                                        OFFSET   2.323470   0.000000   0.000000
                                        CHANNELS 3 Zrotation Xrotation Yrotation
                                        End Site
                                        {
                                            OFFSET   2.273050   0.000000   0.000000
                                        }
                                    }
                                }
                            }
                            JOINT LeftFinger4
                            {
                                OFFSET   7.435090   0.000000  -3.252850
                                CHANNELS 3 Zrotation Xrotation Yrotation
                                JOINT LeftFinger41
                                {
                                    OFFSET   3.717550   0.000000   0.000000
                                    CHANNELS 3 Zrotation Xrotation Yrotation
                                    JOINT LeftFinger42
                                    {
                                        OFFSET   1.858760   0.000000   0.000000
                                        CHANNELS 3 Zrotation Xrotation Yrotation
                                        End Site
                                        {
                                            OFFSET   1.818440   0.000000   0.000000
                                        }
                                    }
                                }
                            }
                        }
                    }
                }
            }
            JOINT RightCollar
            {
                OFFSET  -3.911900  19.017000  -0.467062
                CHANNELS 3 Zrotation Xrotation Yrotation
                JOINT RightShoulder
                {
                    OFFSET -10.383700   0.000015   0.000000
                    CHANNELS 3 Zrotation Xrotation Yrotation
                    JOINT RightElbow
                    {
                        OFFSET -26.662100   0.001341   0.000385
                        CHANNELS 3 Zrotation Xrotation Yrotation
                        JOINT RightWrist
                        {
                            OFFSET -28.869000   0.000025  -0.000080
                            CHANNELS 3 Zrotation Xrotation Yrotation
                            JOINT RightFinger0
                            {
                                OFFSET  -2.044650  -2.323490   3.252850
                                CHANNELS 3 Zrotation Xrotation Yrotation
                                JOINT RightFinger01
                                {
                                    OFFSET  -3.088130   0.000000   0.000000
                                    CHANNELS 3 Zrotation Xrotation Yrotation
                                    JOINT RightFinger02
                                    {
                                        OFFSET  -2.639460   0.000000   0.000000
                                        CHANNELS 3 Zrotation Xrotation Yrotation
                                        End Site
                                        {
                                            OFFSET  -2.582190   0.000000   0.000000
                                        }
                                    }
                                }
                            }
                            JOINT RightFinger1
                            {
                                OFFSET  -8.364480   0.000000   3.252850
                                CHANNELS 3 Zrotation Xrotation Yrotation
                                JOINT RightFinger11
                                {
                                    OFFSET  -4.646930   0.000000   0.000000
                                    CHANNELS 3 Zrotation Xrotation Yrotation
                                    JOINT RightFinger12
                                    {
                                        OFFSET  -2.323470   0.000000   0.000000
                                        CHANNELS 3 Zrotation Xrotation Yrotation
                                        End Site
                                        {
                                            OFFSET  -2.273050   0.000000   0.000000
                                        }
                                    }
                                }
                            }
                            JOINT RightFinger2
                            {
                                OFFSET  -8.364480   0.000000   1.078090
                                CHANNELS 3 Zrotation Xrotation Yrotation
                                JOINT RightFinger21
                                {
                                    OFFSET  -5.111610   0.000000   0.000000
                                    CHANNELS 3 Zrotation Xrotation Yrotation
                                    JOINT RightFinger22
                                    {
                                        OFFSET  -2.788160   0.000000   0.000000
                                        CHANNELS 3 Zrotation Xrotation Yrotation
                                        End Site
                                        {
                                            OFFSET  -2.727660   0.000000   0.000000
                                        }
                                    }
                                }
                            }
                            JOINT RightFinger3
                            {
                                OFFSET  -7.899780   0.000000  -1.078090
                                CHANNELS 3 Zrotation Xrotation Yrotation
                                JOINT RightFinger31
                                {
                                    OFFSET  -4.646920   0.000000   0.000000
                                    CHANNELS 3 Zrotation Xrotation Yrotation
                                    JOINT RightFinger32
                                    {
                                        OFFSET  -2.323470   0.000000   0.000000
                                        CHANNELS 3 Zrotation Xrotation Yrotation
                                        End Site
                                        {
                                            OFFSET  -2.273050   0.000000   0.000000
                                        }
                                    }
                                }
                            }
                            JOINT RightFinger4
                            {
                                OFFSET  -7.435090   0.000000  -3.252850
                                CHANNELS 3 Zrotation Xrotation Yrotation
                                JOINT RightFinger41
                                {
                                    OFFSET  -3.717550   0.000000   0.000000
                                    CHANNELS 3 Zrotation Xrotation Yrotation
                                    JOINT RightFinger42
                                    {
                                        OFFSET  -1.858770   0.000000   0.000000
                                        CHANNELS 3 Zrotation Xrotation Yrotation
                                        End Site
                                        {
                                            OFFSET  -1.818440   0.000000   0.000000
                                        }
                                    }
                                }
                            }
                        }
                    }
                }
            }
        }
    }
    JOINT LeftHip
    {
        OFFSET   9.783010   0.000000   0.000000
        CHANNELS 3 Zrotation Xrotation Yrotation
        JOINT LeftKnee
        {
            OFFSET   0.000070 -41.789100   0.000028
            CHANNELS 3 Zrotation Xrotation Yrotation
            JOINT LeftAnkle
            {
                OFFSET   0.000087 -41.133200  -0.000100
                CHANNELS 3 Zrotation Xrotation Yrotation
                JOINT LeftToe
                {
                    OFFSET   0.000000  -6.358960  14.674500
                    CHANNELS 3 Zrotation Xrotation Yrotation
                    End Site
                    {
                        OFFSET   0.000000   0.000000   3.913200
                    }
                }
            }
        }
    }
    JOINT RightHip
    {
        OFFSET  -9.783020   0.000000   0.000000
        CHANNELS 3 Zrotation Xrotation Yrotation
        JOINT RightKnee
        {
            OFFSET   0.000044 -41.789100  -0.000870
            CHANNELS 3 Zrotation Xrotation Yrotation
            JOINT RightAnkle
            {
                OFFSET  -0.000090 -41.133200  -0.000245
                CHANNELS 3 Zrotation Xrotation Yrotation
                JOINT RightToe
                {
                    OFFSET   0.000000  -6.358960  14.674500
                    CHANNELS 3 Zrotation Xrotation Yrotation
                    End Site
                    {
                        OFFSET   0.000000   0.000000   3.913200
                    }
                }
            }
        }
    }
}
MOTION
Frames: 4
Frame Time:   0.016667
  2.948780  89.936200  -0.864418  -5.005290 -12.206700 -12.596700   0.867034  10.253100  -0.881390   1.945240  20.489900  -1.971970   5.209950  -1.256100   0.113558   8.562980  -2.487700   9.440600  -3.493740  -2.485720   5.632850 -66.930800  27.300400 -10.229100  -5.463150 -11.346800 -19.800700  14.184300   5.592340   7.683150  41.436100  33.853500 -71.002900 -25.944600  -0.000832  -0.000017  -7.972320  -0.003538   0.001598 -33.561900   7.061230 -10.497400 -27.991100   0.002925  -0.003250 -19.593800   0.004247  -0.000851 -29.207600   2.562570  -4.573020 -43.964200  -0.002983  -0.004964 -29.280100  -0.008720  -0.003157 -28.341800   2.493290  -4.611130 -35.526300   0.000362  -0.001541 -23.660600   0.000605  -0.002542 -33.595400   0.553490  -0.833092 -50.399200   0.003021  -0.004650 -33.565800  -0.000936  -0.002853   9.160930   0.033546   9.872430  57.498800   3.795750  35.464200 -13.508900 -20.848700 101.174000 -85.600800  22.382300  66.302100 -31.952000  30.832100  70.268500  43.025500   0.002066  -0.001795  17.437700   0.002693   0.002524  88.996300   4.999220   0.087502  77.750600  -0.000627  -0.000150  58.312900  -0.001259  -0.000616  26.614900  -2.940450  -5.843600  26.759200  -0.001424  -0.002638  17.821700  -0.005645  -0.004976  14.995500  -3.405240 -12.503000  15.368600   0.001004  -0.000069  10.235400   0.001002   0.000119  17.757600  -9.932440 -28.309200  30.403300  -0.003232  -0.008162  20.248500   0.001944  -0.000599  -0.178262  14.173400   5.257260  -0.781905  -0.073032  15.388300  -1.755300  -5.140590   9.959640   0.000000   0.000000   0.000000   2.317020   6.270190  -7.814870  -4.777480  12.072000  -1.754170  -6.047140  -2.502790   8.655110  -0.000000   0.000000   0.000000
  2.883170  89.898900  -0.786747  -5.026150 -12.189100 -12.577300   0.847276  10.195700  -0.851613   1.897570  20.376100  -1.905660   5.253220  -1.149050   0.105666   8.640390  -2.271220   8.864050  -3.493890  -2.490060   5.634830 -67.079900  27.200600 -10.113800  -5.397600 -11.191300 -19.640100  14.234200   5.631300   7.640350  41.441600  33.766400 -70.882500 -25.879300   0.004478   0.002231  -7.939660  -0.003453   0.001430 -33.522400   7.087100 -10.550200 -27.963400   0.000081  -0.003326 -19.574400   0.002995  -0.000885 -29.196700   2.587240  -4.618330 -43.951500  -0.002934  -0.005117 -29.271700  -0.009169  -0.003288 -28.336800   2.517570  -4.656690 -35.500100   0.000219  -0.001629 -23.643100  -0.000060  -0.002542 -33.582400   0.556274  -0.837699 -50.379800   0.003078  -0.004861 -33.552900  -0.000794  -0.003060   9.113150   0.005630   9.875880  57.510600   3.935140  35.595600 -13.484500 -20.913600 101.384000 -85.357000  22.202500  66.667300 -31.923100  30.756300  70.213200  43.026600   0.002039  -0.001771  17.438700   0.002670   0.002501  88.996300   4.999220   0.087506  77.591600  -0.000615  -0.000183  58.193600  -0.001290  -0.000576  26.609700  -2.978970  -5.919600  26.752200  -0.001508  -0.002615  17.817000  -0.005752  -0.004963  15.025600  -3.411000 -12.497100  15.399100   0.000957  -0.000000  10.255800   0.000956   0.000172  17.609300  -9.884240 -28.406400  30.175500  -0.003303  -0.008383  20.096800   0.001828  -0.000601  -0.128438  14.042400   5.242840  -0.761684   0.092251  15.386500  -1.772930  -5.173340   9.950790   0.000000   0.000000   0.000000   2.366770   6.345470  -7.848540  -4.729020  12.003800  -1.739340  -6.103400  -2.518230   8.622610   0.000000   0.000000   0.000000
  2.811070  89.859200  -0.702417  -5.054180 -12.193800 -12.563300   0.825993  10.137100  -0.822424   1.846930  20.259800  -1.840310   5.290700  -0.881432   0.082124   8.692570  -1.739330   8.254680  -3.487390  -2.467580   5.661640 -67.259500  27.018300  -9.971500  -5.313920 -11.009800 -19.550100  14.314000   5.578270   7.613750  41.452900  33.704500 -70.781900 -25.830700   0.003600   0.001799  -7.915350  -0.003383   0.001302 -33.498100   7.104550 -10.585500 -27.946500  -0.001233  -0.003384 -19.562600   0.001711  -0.000918 -29.219700   2.609670  -4.654460 -43.989400  -0.003032  -0.005265 -29.297000  -0.009638  -0.003411 -28.338800   2.538690  -4.694630 -35.544200   0.000099  -0.001720 -23.672500  -0.000778  -0.002548 -33.615200   0.549142  -0.825969 -50.428900   0.002950  -0.005081 -33.585600  -0.000738  -0.003270   9.054410   0.006384   9.882380  57.550200   4.074560  35.722400 -13.457900 -20.943000 101.619000 -85.078800  22.006900  66.991900 -31.925800  30.770300  70.220400  43.033700   0.002009  -0.001689  17.445700   0.002640   0.002472  88.996300   4.999230   0.087505  77.473100  -0.000588  -0.000203  58.104800  -0.001331  -0.000538  26.669100  -2.940300  -5.829990  26.827700  -0.001599  -0.002614  17.867300  -0.005860  -0.004958  15.076800  -3.420540 -12.487400  15.451100   0.000907   0.000090  10.290400   0.000910   0.000207  17.536500  -9.860370 -28.454300  30.063300  -0.003379  -0.008589  20.022100   0.001721  -0.000631  -0.071787  14.106600   5.223220  -0.765235   0.094205  15.393100  -1.792690  -5.220890   9.935280   0.000000   0.000000  -0.000000   2.435320   6.424010  -7.896200  -4.699400  11.968900  -1.687840  -6.161460  -2.551510   8.566930  -0.000000   0.000000   0.000000
  2.734740  89.820200  -0.614449  -5.090150 -12.223000 -12.546500   0.807228  10.082300  -0.798304   1.802610  20.151000  -1.785990   5.308420  -0.459317   0.042632   8.721200  -0.908108   7.655880  -3.482140  -2.425520   5.705210 -67.457100  26.787600  -9.805850  -5.228280 -10.806800 -19.516000  14.401800   5.459820   7.601880  41.461700  33.675600 -70.729200 -25.808200   0.001926   0.000975  -7.904100  -0.003331   0.001208 -33.485900   7.111450 -10.599800 -27.938000  -0.002027  -0.003411 -19.556600   0.000401  -0.000951 -29.266000   2.624930  -4.672030 -44.059600  -0.003718  -0.005411 -29.343700  -0.010135  -0.003536 -28.346600   2.549570  -4.713640 -35.629200  -0.000358  -0.001810 -23.729100  -0.001578  -0.002559 -33.677600   0.535586  -0.803724 -50.522300   0.002160  -0.005320 -33.647800  -0.000730  -0.003493   8.998710   0.011667   9.889170  57.595500   4.219240  35.843500 -13.439500 -20.950200 101.843000 -84.817800  21.838800  67.297200 -31.933400  30.807300  70.239800  43.049800   0.001980  -0.001629  17.461500   0.002611   0.002443  88.996300   4.999230   0.087503  77.381900  -0.000569  -0.000224  58.036400  -0.001374  -0.000502  26.770500  -2.867810  -5.663320  26.982300  -0.001690  -0.002612  17.970300  -0.005968  -0.004950  15.142900  -3.432780 -12.474800  15.518200   0.000856   0.000182  10.335100   0.000864   0.000236  17.508500  -9.851090 -28.472700  30.020300  -0.003458  -0.008791  19.993500   0.001616  -0.000670  -0.010162  14.236900   5.196420  -0.768787   0.096159  15.399600  -1.813650  -5.275730   9.925020  -0.000000   0.000000   0.000000   2.522530   6.525370  -7.953010  -4.692110  11.949900  -1.629850  -6.220780  -2.595690   8.505680   0.000000   0.000000   0.000000
